<svg xmlns="http://www.w3.org/2000/svg" width="966" height="453" viewBox="0 0 966 453">
  <defs>
    <style>
      .cls-1 {
        fill: #dccfc1;
        fill-rule: evenodd;
      }
    </style>
  </defs>
  <path id="line" class="cls-1" d="M481.5,2207h965a0.5,0.5,0,0,1,.5.5h0a0.5,0.5,0,0,1-.5.5h-965a0.5,0.5,0,0,1-.5-0.5h0A0.5,0.5,0,0,1,481.5,2207Zm0,76h965a0.5,0.5,0,0,1,.5.5h0a0.5,0.5,0,0,1-.5.5h-965a0.5,0.5,0,0,1-.5-0.5h0A0.5,0.5,0,0,1,481.5,2283Zm0,74h965a0.5,0.5,0,0,1,.5.5h0a0.5,0.5,0,0,1-.5.5h-965a0.5,0.5,0,0,1-.5-0.5h0A0.5,0.5,0,0,1,481.5,2357Zm0,76h965a0.5,0.5,0,0,1,.5.5h0a0.5,0.5,0,0,1-.5.5h-965a0.5,0.5,0,0,1-.5-0.5h0A0.5,0.5,0,0,1,481.5,2433Zm0,75h965a0.5,0.5,0,0,1,.5.5h0a0.5,0.5,0,0,1-.5.5h-965a0.5,0.5,0,0,1-.5-0.5h0A0.5,0.5,0,0,1,481.5,2508Zm0,74h965a0.5,0.5,0,0,1,.5.5h0a0.5,0.5,0,0,1-.5.5h-965a0.5,0.5,0,0,1-.5-0.5h0A0.5,0.5,0,0,1,481.5,2582Zm0-452h965a0.5,0.5,0,0,1,.5.5h0a0.5,0.5,0,0,1-.5.5h-965a0.5,0.5,0,0,1-.5-0.5h0A0.5,0.5,0,0,1,481.5,2130Z" transform="translate(-481 -2130)"/>
</svg>
